<?xml version="1.0" encoding="utf-8"?>
<!-- Generator: Adobe Illustrator 23.1.0, SVG Export Plug-In . SVG Version: 6.00 Build 0)  -->
<svg version="1.1" id="Layer_1" xmlns="http://www.w3.org/2000/svg" xmlns:xlink="http://www.w3.org/1999/xlink" x="0px" y="0px"
	 viewBox="0 0 1024 1024" style="enable-background:new 0 0 1024 1024;" xml:space="preserve">
<style type="text/css">
	.st0{fill:#FFFFFF;}
</style>
<g>
	<path class="st0" d="M496.83,906.18c-43.83,0-84.78,0-129.72,0c0-90.16,0-179.67,0-269.18c0-89,0-177.99,0-268.63
		c-103.44,0-204.18,0-306.11,0c0-43.22,0-84.78,0-128.77c8.73,0,16.6,0,24.48,0c101.71,0,203.42,0.37,305.11-0.51
		c11.39-0.1,24.56-4.77,33.77-11.56c61.04-45.06,121.14-91.39,181.81-136.95c6.14-4.61,14.09-9.66,21.23-9.7
		c125.25-0.59,250.49-0.42,377.6-0.42c0,42.51,0,84.08,0,128.94c-6.99,0-14.77,0-22.55,0c-98.76,0-197.52-0.45-296.27,0.55
		c-12.77,0.13-27.5,4.86-37.83,12.31c-46.01,33.14-90.41,68.51-136.17,102.01c-12.26,8.98-15.65,18.85-15.61,33.28
		c0.42,173.19,0.27,346.39,0.27,519.58C496.83,885.9,496.83,894.68,496.83,906.18z"/>
	<path class="st0" d="M672.25,904.98c-45.45,0-86.58,0-130.46,0c0-8.01,0-15.15,0-22.3c0-164.33,0.19-328.65-0.32-492.98
		c-0.05-14.79,4.28-24.07,16.37-32.85c40.52-29.42,79.94-60.35,120.19-90.16c6.75-5,15.48-10.32,23.33-10.38
		c99.42-0.7,198.85-0.46,300.41-0.46c0,42.78,0,84.25,0,128.51c-7.33,0.37-15.04,1.09-22.76,1.1
		c-67.79,0.09-135.63,1.37-203.36-0.58c-28.35-0.82-49.91,7.71-72.4,24.16c-22.98,16.81-32.18,34.33-31.8,63.52
		c1.78,134.83,0.79,269.69,0.79,404.54C672.25,885.72,672.25,894.34,672.25,904.98z"/>
</g>
</svg>
