<svg xmlns="http://www.w3.org/2000/svg" viewBox="0 0 1440 320"><path fill="#ffffff" fill-opacity="1" d="M0,128L20,138.7C40,149,80,171,120,154.7C160,139,200,85,240,101.3C280,117,320,203,360,224C400,245,440,203,480,165.3C520,128,560,96,600,80C640,64,680,64,720,96C760,128,800,192,840,218.7C880,245,920,235,960,213.3C1000,192,1040,160,1080,165.3C1120,171,1160,213,1200,202.7C1240,192,1280,128,1320,122.7C1360,117,1400,171,1420,197.3L1440,224L1440,320L1420,320C1400,320,1360,320,1320,320C1280,320,1240,320,1200,320C1160,320,1120,320,1080,320C1040,320,1000,320,960,320C920,320,880,320,840,320C800,320,760,320,720,320C680,320,640,320,600,320C560,320,520,320,480,320C440,320,400,320,360,320C320,320,280,320,240,320C200,320,160,320,120,320C80,320,40,320,20,320L0,320Z"></path></svg>