<?xml version="1.0" standalone="no"?><svg xmlns="http://www.w3.org/2000/svg" viewBox="0 0 1440 320"><path fill="#9ba2ea" fill-opacity="1" d="M0,256L34.3,261.3C68.6,267,137,277,206,245.3C274.3,213,343,139,411,90.7C480,43,549,21,617,58.7C685.7,96,754,192,823,218.7C891.4,245,960,203,1029,170.7C1097.1,139,1166,117,1234,122.7C1302.9,128,1371,160,1406,176L1440,192L1440,320L1405.7,320C1371.4,320,1303,320,1234,320C1165.7,320,1097,320,1029,320C960,320,891,320,823,320C754.3,320,686,320,617,320C548.6,320,480,320,411,320C342.9,320,274,320,206,320C137.1,320,69,320,34,320L0,320Z"></path></svg>