<svg xmlns="http://www.w3.org/2000/svg" width="52.118" height="52.118" viewBox="0 0 52.118 52.118">
  <g id="Group_9" data-name="Group 9" transform="translate(-1068 -1159)">
    <path id="Path_235" data-name="Path 235" d="M88.794,265.7l-1.861,5.583a1.527,1.527,0,0,0,.369,1.563l8.637,8.637a1.527,1.527,0,0,0,1.563.369L103.085,280Z" transform="translate(989.987 920.342)" fill="#3746d5"/>
    <path id="Path_236" data-name="Path 236" d="M221.058,371.2a4.759,4.759,0,0,1-1.79,1.107l-4.152,1.384-.953,4.971a1.526,1.526,0,0,0,2.283,1.608l10.8-6.682a1.527,1.527,0,0,0,.712-1.608l-1.279-6.4Z" transform="translate(875.664 830.634)" fill="#3746d5"/>
    <path id="Path_237" data-name="Path 237" d="M1.827,175.623,6.8,174.67l1.443-4.327a4.642,4.642,0,0,1,1.048-1.615l5.616-5.616-6.4-1.279a1.526,1.526,0,0,0-1.608.712l-6.682,10.8a1.526,1.526,0,0,0,1.608,2.283Z" transform="translate(1068 1013.668)" fill="#3746d5"/>
    <path id="Path_238" data-name="Path 238" d="M346.293.447,343.5,3.241c-5.6,0-9.217.087-13.084,2.025A13.664,13.664,0,0,0,343.64,18.472C345.572,14.61,345.656,11,345.659,5.4l2.793-2.793a1.527,1.527,0,0,0-2.16-2.159Z" transform="translate(771.218 1159)" fill="#3746d5"/>
    <circle id="Ellipse_3" data-name="Ellipse 3" cx="1.527" cy="1.527" r="1.527" transform="translate(1093.483 1183.475) rotate(-45)" fill="#3746d5"/>
    <path id="Path_239" data-name="Path 239" d="M141.3,68.8a48.979,48.979,0,0,0-6.087,5.321L123.066,86.271l15.116,15.115,12.151-12.151a49.239,49.239,0,0,0,5.295-6.048A16.609,16.609,0,0,1,141.3,68.8Zm.116,20.711a4.581,4.581,0,1,1,0-6.478A4.586,4.586,0,0,1,141.421,89.51Z" transform="translate(957.461 1097.204)" fill="#3746d5"/>
    <path id="Path_240" data-name="Path 240" d="M4.274,369.714C2.536,371.452.818,375.746.019,380.862a1.527,1.527,0,0,0,1.744,1.744c5.115-.8,9.409-2.516,11.148-4.254a6.059,6.059,0,0,0,1.752-3.961l-6.428-6.428A6.059,6.059,0,0,0,4.274,369.714Z" transform="translate(1067.999 828.494)" fill="#d53746"/>
  </g>
</svg>
