<svg xmlns="http://www.w3.org/2000/svg" width="53" height="53" viewBox="0 0 53 53">
  <g id="Group_8" data-name="Group 8" transform="translate(-414 -1735)">
    <g id="painter-palette" transform="translate(414 1735)">
      <g id="palette" transform="translate(0 0)">
        <path id="Path_230" data-name="Path 230" d="M26.5,0a26.5,26.5,0,0,0,0,53,4.528,4.528,0,0,0,4.417-4.417,3.78,3.78,0,0,0-1.178-2.944,5.231,5.231,0,0,1-1.178-2.944,4.529,4.529,0,0,1,4.417-4.417h5.3A14.579,14.579,0,0,0,53,23.556C53,10.6,41.222,0,26.5,0ZM10.306,26.5a4.528,4.528,0,0,1-4.417-4.417,4.528,4.528,0,0,1,4.417-4.417,4.528,4.528,0,0,1,4.417,4.417A4.528,4.528,0,0,1,10.306,26.5Zm8.833-11.778a4.528,4.528,0,0,1-4.417-4.417,4.528,4.528,0,0,1,4.417-4.417,4.528,4.528,0,0,1,4.417,4.417A4.528,4.528,0,0,1,19.139,14.722Zm14.722,0a4.528,4.528,0,0,1-4.417-4.417,4.417,4.417,0,0,1,8.833,0A4.528,4.528,0,0,1,33.861,14.722ZM42.694,26.5a4.417,4.417,0,1,1,4.417-4.417A4.528,4.528,0,0,1,42.694,26.5Z" fill="#3746d5"/>
      </g>
    </g>
  </g>
</svg>
