<svg xmlns="http://www.w3.org/2000/svg" width="49.301" height="55.262" viewBox="0 0 49.301 55.262">
  <g id="Group_11" data-name="Group 11" transform="translate(-1200 -1734)">
    <g id="Group_7" data-name="Group 7" transform="translate(1200 1734)">
      <g id="Group_6" data-name="Group 6" transform="translate(0 0)">
        <g id="Group_5" data-name="Group 5" transform="translate(0 0)">
          <path id="Path_231" data-name="Path 231" d="M46.914,28.338H2.388C1.069,28.338,0,29.727,0,31.44V67.731c0,1.713,1.069,3.1,2.388,3.1H19.04v7.029H12.56c-1.218,0-2.208,1.287-2.208,2.869S11.342,83.6,12.56,83.6H36.741c1.218,0,2.208-1.287,2.208-2.869s-.991-2.869-2.208-2.869h-6.48V70.833H46.914c1.319,0,2.388-1.389,2.388-3.1V31.44C49.3,29.727,48.233,28.338,46.914,28.338ZM45.72,66.18H3.581V32.991H45.72Z" transform="translate(0 -28.338)" fill="#3746d5"/>
          <path id="Path_232" data-name="Path 232" d="M88.6,131.369l9.784,4.55a1.9,1.9,0,0,0,2.7-1.725v-.05a1.908,1.908,0,0,0-1.1-1.724l-6.119-2.843,6.119-2.843a1.908,1.908,0,0,0,1.1-1.724v-.049a1.9,1.9,0,0,0-1.9-1.9,1.912,1.912,0,0,0-.8.176L88.6,127.785a1.908,1.908,0,0,0-1.1,1.724v.136A1.91,1.91,0,0,0,88.6,131.369Z" transform="translate(-77.895 -108.369)" fill="#d53746"/>
          <path id="Path_233" data-name="Path 233" d="M173.671,111.13a1.908,1.908,0,0,0,1.536.78h.049a1.9,1.9,0,0,0,1.81-1.321l6.445-19.969a1.9,1.9,0,0,0-1.81-2.482h-.049a1.9,1.9,0,0,0-1.811,1.321l-6.446,19.971A1.911,1.911,0,0,0,173.671,111.13Z" transform="translate(-153.803 -78.864)" fill="#d53746"/>
          <path id="Path_234" data-name="Path 234" d="M237.9,125.007a1.91,1.91,0,0,0,1.1,1.725l6.119,2.843L239,132.418a1.908,1.908,0,0,0-1.1,1.724v.05a1.9,1.9,0,0,0,2.7,1.724l9.783-4.55a1.91,1.91,0,0,0,1.1-1.724v-.136a1.908,1.908,0,0,0-1.1-1.724l-9.783-4.549a1.9,1.9,0,0,0-2.7,1.724v.05Z" transform="translate(-211.784 -108.368)" fill="#3746d5"/>
        </g>
      </g>
    </g>
  </g>
</svg>
