<svg xmlns="http://www.w3.org/2000/svg" width="53" height="53" viewBox="0 0 53 53">
  <g id="Group_10" data-name="Group 10" transform="translate(-805 -1341)">
    <g id="Group_4" data-name="Group 4" transform="translate(805 1341)">
      <path id="Path_223" data-name="Path 223" d="M46.712,36.7A21.506,21.506,0,0,0,16.3,6.289a21.087,21.087,0,0,0-3.235,25.955.9.9,0,0,1-.125,1.078L1.967,44.293c-2.184,2.184-2.7,5.237-.767,7.174l.333.333c1.937,1.937,4.991,1.417,7.174-.767L19.657,40.085a.918.918,0,0,1,1.1-.148A21.087,21.087,0,0,0,46.712,36.7Zm-26.443-3.97a15.89,15.89,0,1,1,22.472,0A15.908,15.908,0,0,1,20.269,32.732Z" transform="translate(-0.001 0)" fill="#3746d5"/>
      <g id="Group_3" data-name="Group 3" transform="translate(19.817 14.074)">
        <path id="Path_224" data-name="Path 224" d="M127.821,82.43c-6.491,0-11.754,6.474-11.754,7.532,0,1.026,5.262,7.532,11.754,7.532s11.754-6.476,11.754-7.532S134.312,82.43,127.821,82.43Zm0,12.892a5.361,5.361,0,1,1,5.36-5.361A5.361,5.361,0,0,1,127.821,95.322Z" transform="translate(-116.067 -82.43)" fill="#d53746"/>
        <circle id="Ellipse_2" data-name="Ellipse 2" cx="2.731" cy="2.731" r="2.731" transform="translate(9.023 4.801)" fill="#d53746"/>
      </g>
    </g>
  </g>
</svg>
